<svg width="22" height="18" viewBox="0 0 22 18" fill="none" xmlns="http://www.w3.org/2000/svg">
<path d="M1.57812 17.1973C1.23828 17.1973 0.954102 17.083 0.725586 16.8545C0.49707 16.626 0.382812 16.3477 0.382812 16.0195V12.0557L3.82812 13.7783V16.0195C3.82812 16.3477 3.71094 16.626 3.47656 16.8545C3.24805 17.083 2.9668 17.1973 2.63281 17.1973H1.57812ZM19.376 17.1973C19.0361 17.1973 18.752 17.083 18.5234 16.8545C18.2949 16.626 18.1807 16.3477 18.1807 16.0195V13.7783L21.6172 12.0557V16.0195C21.6172 16.3477 21.5029 16.626 21.2744 16.8545C21.0459 17.083 20.7646 17.1973 20.4307 17.1973H19.376ZM11 14.7012C10.25 14.7012 9.45898 14.6924 8.62695 14.6748C7.80078 14.6572 6.98926 14.6338 6.19238 14.6045C5.39551 14.5752 4.66602 14.54 4.00391 14.499C3.3418 14.458 2.80273 14.4141 2.38672 14.3672C1.75391 14.291 1.26172 14.0771 0.910156 13.7256C0.558594 13.3682 0.382812 12.8848 0.382812 12.2754V10.79C0.382812 10.2744 0.417969 9.82324 0.488281 9.43652C0.558594 9.04395 0.672852 8.68066 0.831055 8.34668C0.995117 8.0127 1.21484 7.66699 1.49023 7.30957L2.27246 6.33398C2.37793 5.80664 2.50684 5.28516 2.65918 4.76953C2.81152 4.25391 2.96094 3.79102 3.10742 3.38086C3.25391 2.9707 3.37988 2.65723 3.48535 2.44043C3.73145 1.9248 4.08301 1.51172 4.54004 1.20117C4.99707 0.884766 5.5332 0.688477 6.14844 0.612305C6.35352 0.588867 6.69043 0.568359 7.15918 0.550781C7.62793 0.527344 8.19043 0.509766 8.84668 0.498047C9.50293 0.486328 10.2207 0.480469 11 0.480469C11.7793 0.480469 12.4971 0.486328 13.1533 0.498047C13.8096 0.509766 14.3721 0.527344 14.8408 0.550781C15.3096 0.568359 15.6523 0.588867 15.8691 0.612305C16.4727 0.694336 17.0029 0.890625 17.46 1.20117C17.9229 1.51172 18.2773 1.9248 18.5234 2.44043C18.623 2.65723 18.7461 2.9707 18.8926 3.38086C19.0449 3.79102 19.1943 4.25391 19.3408 4.76953C19.4932 5.28516 19.625 5.80664 19.7363 6.33398L20.5186 7.30957C20.7881 7.66699 21.0049 8.0127 21.1689 8.34668C21.333 8.68066 21.4473 9.04395 21.5117 9.43652C21.582 9.82324 21.6172 10.2744 21.6172 10.79V12.2754C21.6172 12.8848 21.4414 13.3682 21.0898 13.7256C20.7441 14.0771 20.252 14.291 19.6133 14.3672C19.1973 14.4141 18.6582 14.458 17.9961 14.499C17.334 14.54 16.6045 14.5752 15.8076 14.6045C15.0107 14.6338 14.1992 14.6572 13.373 14.6748C12.5469 14.6924 11.7559 14.7012 11 14.7012ZM4.55762 12.249C4.97949 12.249 5.33105 12.1084 5.6123 11.8271C5.89355 11.5459 6.03418 11.1943 6.03418 10.7725C6.03418 10.3564 5.89355 10.0078 5.6123 9.72656C5.33105 9.44531 4.97949 9.30469 4.55762 9.30469C4.13574 9.30469 3.78418 9.44531 3.50293 9.72656C3.22168 10.0078 3.08105 10.3564 3.08105 10.7725C3.08105 11.1943 3.22168 11.5459 3.50293 11.8271C3.78418 12.1084 4.13574 12.249 4.55762 12.249ZM8.62695 11.8799H13.3818C13.6924 11.8799 13.9473 11.7803 14.1465 11.5811C14.3457 11.3818 14.4453 11.127 14.4453 10.8164C14.4453 10.5059 14.3457 10.251 14.1465 10.0518C13.9473 9.84668 13.6924 9.74414 13.3818 9.74414H8.62695C8.31055 9.74414 8.05273 9.84668 7.85352 10.0518C7.66016 10.251 7.56348 10.5059 7.56348 10.8164C7.56348 11.127 7.66016 11.3818 7.85352 11.5811C8.05273 11.7803 8.31055 11.8799 8.62695 11.8799ZM17.4424 12.249C17.8643 12.249 18.2158 12.1084 18.4971 11.8271C18.7783 11.5459 18.9189 11.1943 18.9189 10.7725C18.9189 10.3564 18.7783 10.0078 18.4971 9.72656C18.2158 9.44531 17.8643 9.30469 17.4424 9.30469C17.0264 9.30469 16.6777 9.44531 16.3965 9.72656C16.1152 10.0078 15.9746 10.3564 15.9746 10.7725C15.9746 11.1943 16.1152 11.5459 16.3965 11.8271C16.6777 12.1084 17.0264 12.249 17.4424 12.249ZM4.25 5.52539C4.20312 5.71289 4.2207 5.85059 4.30273 5.93848C4.38477 6.02637 4.52539 6.06445 4.72461 6.05273C5.17578 6.0293 5.67969 6.00586 6.23633 5.98242C6.79883 5.95313 7.46387 5.92969 8.23145 5.91211C8.99902 5.89453 9.92188 5.88574 11 5.88574C12.0781 5.88574 13.001 5.89453 13.7686 5.91211C14.542 5.92969 15.21 5.95313 15.7725 5.98242C16.335 6.00586 16.8389 6.0293 17.2842 6.05273C17.4834 6.06445 17.624 6.02637 17.7061 5.93848C17.7881 5.85059 17.8057 5.71289 17.7588 5.52539C17.6885 5.23242 17.6035 4.92187 17.5039 4.59375C17.4043 4.26563 17.3018 3.96094 17.1963 3.67969C17.0967 3.39844 17 3.18164 16.9062 3.0293C16.7773 2.79492 16.6309 2.625 16.4668 2.51953C16.3086 2.4082 16.0918 2.33203 15.8164 2.29102C15.5059 2.24414 14.9609 2.21191 14.1816 2.19434C13.4023 2.1709 12.3418 2.15918 11 2.15918C9.6582 2.15918 8.59766 2.1709 7.81836 2.19434C7.04492 2.21777 6.50293 2.25 6.19238 2.29102C5.91699 2.32617 5.69727 2.39941 5.5332 2.51074C5.36914 2.62207 5.22266 2.79492 5.09375 3.0293C5.00586 3.18164 4.90918 3.39844 4.80371 3.67969C4.69824 3.96094 4.5957 4.26563 4.49609 4.59375C4.39648 4.92187 4.31445 5.23242 4.25 5.52539Z" fill="#FAFAFA"/>
</svg>
